# xmcd
#
# Track frame offsets:
#	150
#	17683
#	36259
#	58961
#	79895
#	93736
#	113634
#	134619
#	145927
#	162654
#	188528
#	203834
#	225510
#	238692
#	257728
#	272701
#	294066
#	313897
#	333254
#
# Disc length: 4682
#
# Revision: 6
# Processed by: cddbd v1.5.1PL0 Copyright (c) Steve Scherf et al.
# Submitted via: CDex 1.50
# Normalized: r5:DSETVAR1
#
DISCID=16124813
DTITLE=Various Artist - The 80's - Disc 2
DYEAR=2002
DGENRE=Rock
TTITLE0=John Lennon - (Just Like) Starting Over
TTITLE1=Duran Duran - Is There Something I Should Know?
TTITLE2=Huey Lewis And The News - The Heart Of Rock and Roll
TTITLE3=Prince - Let's Go Crazy
TTITLE4=The Cars - You Might Think
TTITLE5=Yes - Owner Of A Lonely Heart
TTITLE6=Peter Gabriel - Sledgehammer
TTITLE7=Go-Go's - We Got The Beat
TTITLE8=Sheila E. - The Glamorous Life
TTITLE9=Chaka Khan - I Feel For You
TTITLE10=Kim Wilde - Kids In America
TTITLE11=Laura Branigan - Gloria
TTITLE12=Madness - In The City
TTITLE13=Howard Jones - New Song
TTITLE14=Falco - Rock Me Amadeus
TTITLE15=Tears For Fears - Shout
TTITLE16=Robert Palmer - Addicted To Love
TTITLE17=Simple Minds - Don't You (Forget About Me)
TTITLE18=Club Nouveau - Lean On Me
EXTD=YEAR: 2002
EXTT0=
EXTT1=
EXTT2=
EXTT3=
EXTT4=
EXTT5=
EXTT6=
EXTT7=
EXTT8=
EXTT9=
EXTT10=
EXTT11=
EXTT12=
EXTT13=
EXTT14=
EXTT15=
EXTT16=
EXTT17=
EXTT18=
PLAYORDER=
